<svg xmlns="http://www.w3.org/2000/svg" viewBox="0 0 492 457.99"><defs><style>.cls-1,.cls-2,.cls-3,.cls-4,.cls-5{stroke:#fff;stroke-width:2px;}.cls-1,.cls-2,.cls-3{stroke-miterlimit:10;}.cls-2,.cls-5{fill:#6b0d0e;}.cls-3{fill:#4f4f4f;}.cls-4{fill:#010101;}</style></defs><g id="Layer_1" data-name="Layer 1"><path class="cls-1" d="M465.21,243.23c-1.53-57.26-23.55-111-61.85-150.53A217.41,217.41,0,0,0,316,37.77C275.56,24.3,231.22,23,188.08,33.09c-.25-1.65-.5-3.31-.76-5,43.53-9.7,88.16-8,128.76,5.88A219.72,219.72,0,0,1,403.26,89.4C442.19,129.83,464.34,184.78,465.21,243.23Z" transform="translate(-4 -21.01)"/><path class="cls-2" d="M454,287.83c6.7-54.65-5.12-108.87-34.33-152.6a210.22,210.22,0,0,0-76.08-68.81C307.25,47.09,265.24,38.81,222.69,42.3c0-1.69,0-3.39,0-5.08,42.87-3,85.07,5.73,121.55,25.48A212.77,212.77,0,0,1,420,131.89C449.75,176.58,461.51,232.07,454,287.83Z" transform="translate(-4 -21.01)"/><path class="cls-3" d="M425.13,389c40.66-40.35,64.69-93.18,67.27-148.18a217.31,217.31,0,0,0-19.86-101.29c-17.88-38.66-47.3-71.86-84.22-96.37l3.1-3.95C428.3,64.31,457.63,98,475.35,137.06a219.68,219.68,0,0,1,19.39,101.45C492,294.56,467.11,348.35,425.13,389Z" transform="translate(-4 -21.01)"/><path class="cls-2" d="M383.63,412.39c45-31.76,77.18-76.95,89.94-128a210.39,210.39,0,0,0-.17-102.59C463.27,141.92,441.17,105.25,410,76.08l3.77-3.41c31,29.74,52.92,66.86,62.82,107.14a212.79,212.79,0,0,1-.32,102.61C463.14,334.46,430,380.46,383.63,412.39Z" transform="translate(-4 -21.01)"/><path class="cls-3" d="M30.34,293.82C41.43,350,72.12,399.28,116.49,431.89a217.38,217.38,0,0,0,95.34,39.54c42.1,6.52,86,.4,126.88-16.77.53,1.59,1.05,3.18,1.58,4.77C299,476.26,254.71,482,212.36,475.16a219.61,219.61,0,0,1-95.21-40C72,401.78,41,351.3,30.34,293.82Z" transform="translate(-4 -21.01)"/><path class="cls-4" d="M33.3,252c2.54,55,23.26,106.48,59.36,144.71a210.34,210.34,0,0,0,86.52,55.12c39.09,13,81.89,14.11,123.26,3.55l.84,5c-41.77,10.12-84.84,8.57-124.11-4.8A212.79,212.79,0,0,1,92.9,400.09C56.12,361,35.25,308.26,33.3,252Z" transform="translate(-4 -21.01)"/><path class="cls-4" d="M52.39,136.72C18.22,182.7,2.37,238.53,8,293.3a217.25,217.25,0,0,0,34.79,97.17c23.46,35.56,57.52,64,97.68,82.69q-1.23,2.19-2.47,4.37c-40.22-19.26-74.25-48.18-97.61-84.16A219.69,219.69,0,0,1,6.08,296C.44,240.12,17,183.22,52.39,136.72Z" transform="translate(-4 -21.01)"/><path class="cls-2" d="M87.28,107.65c-39,38.84-63.22,88.78-67.27,141.2A210.25,210.25,0,0,0,37.33,350c16.67,37.66,44.59,70.12,80.21,93.66l-3.16,4C78.82,423.49,51,390.56,34.54,352.49A212.65,212.65,0,0,1,17.69,251.28C21.93,197.77,47,146.87,87.28,107.65Z" transform="translate(-4 -21.01)"/></g><g id="Layer_2" data-name="Layer 2"><path class="cls-5" d="M132.85,297.05h31.28c1.66.36,3.31.7,3.92-1.57,8.71-14.93,17.5-29.81,26.06-44.82,1.61-2.83,3.27-4,6.64-4,11.94.23,23.89.1,35.83.07,2,0,3.77,0,5,2.23,6.66,11.83,13.51,23.56,20.8,36.21H251.1c-9.59,0-19.18.11-28.76-.08-2.91-.05-4.47.89-5.9,3.43-8.35,14.75-16.93,29.38-25.34,44.1-1.19,2.08-2.38,3.16-5,3.15q-61.05-.15-122.16-.07c-.75-2,.86-3.18,1.61-4.49q57.1-99,114.22-198.08c2.13-3.7,4.37-5,8.64-4.95,14.12.3,28.26.2,42.39,0,3,0,4.85.77,6.35,3.56,3.9,7.23,8.17,14.26,12.76,22.19,3.86-6.6,7.89-12.5,10.87-18.9,2.58-5.56,6.07-7.17,12.07-7,13.44.52,26.91.21,40.37.13,2.52,0,4.23.35,5.7,2.89Q377.33,232.66,436,334a4.81,4.81,0,0,1,.31,1c-.76,1.34-2.08.69-3.11.69-39.53,0-79.06,0-118.59.12-3.19,0-4.68-1.21-6.17-3.79q-46.35-80.53-92.87-161c-3.6-6.23-9.72-6.24-13.31,0q-34.87,60.41-69.75,120.82c-.67,1.15-1.2,2.38-1.79,3.57-.68.35-1,1.26-.51,1.48A7.4,7.4,0,0,0,132.85,297.05Zm237.7.23c-6.57-11.4-12.66-22-18.77-32.57q-27.21-47.1-54.42-94.19c-3.18-5.51-9.55-5.44-12.79.13-3.7,6.39-7.33,12.82-11.14,19.15a4.36,4.36,0,0,0-.1,5q28.92,49.88,57.71,99.84c1,1.74,2.09,2.68,4.31,2.66C346.76,297.22,358.17,297.28,370.55,297.28Z" transform="translate(-4 -21.01)"/></g></svg>