<svg version="1.1" id="Capa_1" xmlns="http://www.w3.org/2000/svg" x="0" y="0" width="1000" height="1000" xml:space="preserve"><path d="M878.5 491.512c0 47.251.434 85.827-.146 124.387-.413 27.536-5.24 54.627-12.207 81.227-7.029 26.854-17.314 52.564-30.363 77.054-13.446 25.233-29.57 48.646-48.081 70.559-26.124 30.92-56.749 56.51-91.074 77.457-35.765 21.829-74.32 37.005-115.495 46.01-35.91 7.854-72.142 9.626-108.418 7.586-38.476-2.166-75.845-10.932-111.859-25.293-33.99-13.555-65.484-31.441-94.194-53.878-28.482-22.256-53.373-48.177-74.375-77.822-25.103-35.437-43.694-73.88-55.983-115.483-5.261-17.809-9.071-35.905-11.21-54.313-6.732-57.942-2.108-116.113-3.232-174.173-.551-28.438-.523-56.901.02-85.339.593-31.075 5.44-61.633 13.94-91.544 11.633-40.931 29.67-78.813 54.319-113.571 20.8-29.329 45.042-55.237 73.026-77.928 35.571-28.838 75.194-49.901 118.383-64.478 26.028-8.784 52.762-13.994 80.22-16.583 24.031-2.266 48.153-2.598 71.909-.813 34.774 2.611 69.015 9.896 101.669 23.092 35.131 14.196 68.304 31.874 98.073 55.444 31.831 25.206 59.384 54.48 81.956 88.334 24.382 36.57 42.155 76.127 52.653 118.78a344.89 344.89 0 018.963 55.693c3.489 44.747.067 89.533 1.506 125.595zM547.416 68.036c-.734-.35-1.439-.922-2.206-1.017-40.405-5.067-80.553-3.756-120.266 5.564-76.667 17.991-139.958 57.657-188.976 119.19-46.741 58.677-71.725 125.942-72.939 201.045-1.113 68.896-.305 137.826-.388 206.744-.032 26.32 3.079 52.301 9.35 77.805 17.215 70.02 53.339 128.69 107.466 176.198 11.665 10.238 23.757 20.097 37.492 27.624 1.294.981 2.52 2.074 3.894 2.926 75.899 47.079 158.052 61.975 245.366 45.045 80.314-15.574 146.362-56.322 197.539-120.093 47.929-59.72 73.07-128.246 73.775-205.005.633-68.928.048-137.871.196-206.807.035-16.459-.989-32.867-3.945-48.957-21.196-115.413-84.247-199.682-189.452-251.837-30.497-15.116-62.78-25.168-96.906-28.425z" fill-rule="evenodd" clip-rule="evenodd" fill="#ed303c"/><path d="M547.416 68.036c34.126 3.257 66.409 13.309 96.906 28.427C749.527 148.618 812.578 232.887 833.774 348.3c2.956 16.09 3.98 32.498 3.945 48.957-.148 68.936.437 137.879-.196 206.807-.705 76.759-25.847 145.285-73.775 205.005-51.177 63.771-117.225 104.519-197.539 120.093-87.314 16.93-169.467 2.034-245.366-45.045-1.375-.852-2.6-1.944-3.894-2.926.224-10.09-.887-20.146-1.159-30.167-.857-31.609-1.764-63.199-3.498-94.777-1.076-19.596-.17-39.224-1.398-58.889-1.986-31.85-.157-63.823-1.552-95.787-1.224-28.007-.126-56.178.672-84.301 1.22-43.045 2.039-86.056 5.211-129.034 1.521-20.622 4.318-41.037 6.841-61.51 3.217-26.106 9.601-51.381 21.574-74.929 21.911-43.097 49.576-81.766 85.61-114.533 34.653-31.512 73.251-55.581 118.166-69.228z" fill-rule="evenodd" clip-rule="evenodd" fill="#2b696b"/><path d="M547.416 68.036c-44.915 13.646-83.513 37.716-118.166 69.228-36.034 32.768-63.699 71.437-85.61 114.533-11.973 23.548-18.357 48.822-21.574 74.929-2.523 20.473-5.32 40.888-6.841 61.51-3.172 42.979-3.991 85.989-5.211 129.034-.798 28.123-1.896 56.294-.672 84.301 1.396 31.964-.434 63.938 1.552 95.787 1.229 19.665.322 39.293 1.398 58.889 1.734 31.578 2.641 63.168 3.498 94.777.272 10.021 1.383 20.077 1.159 30.167-13.734-7.527-25.827-17.386-37.492-27.624-54.126-47.508-90.251-106.179-107.466-176.198-6.271-25.504-9.382-51.484-9.35-77.805.083-68.918-.725-137.848.388-206.744 1.214-75.103 26.198-142.368 72.939-201.045 49.018-61.533 112.308-101.199 188.976-119.19 39.713-9.32 79.861-10.632 120.266-5.564.767.093 1.472.666 2.206 1.015z" fill-rule="evenodd" clip-rule="evenodd" fill="#89b3b5"/><path d="M379.071 205.973c2.895-7.135 7.634-7.137 10.533-.003l171.037 420.879c2.898 7.133 2.893 18.804-.015 25.934l-54.944 134.774c-2.907 7.13-7.648 7.124-10.538-.014L389.618 526.805c-2.889-7.138-7.625-7.142-10.525-.008L347.29 605.03c-2.9 7.134-11.572 12.97-19.272 12.97H225.929c-7.7 0-11.632-5.838-8.737-12.974l161.879-399.053zm294.263 412.356c-7.7.022-16.34-5.81-19.199-12.959l-96.936-242.371c-2.859-7.149-2.842-18.841.039-25.982l54.19-134.311c2.881-7.141 7.59-7.138 10.465.005l161.88 402.301c2.875 7.144-1.073 13.006-8.773 13.028l-101.666.289z" fill-rule="evenodd" clip-rule="evenodd" fill="#e1f5c4"/></svg>