<svg version="1.1" id="Capa_1" xmlns="http://www.w3.org/2000/svg" x="0" y="0" width="1000" height="1000" xml:space="preserve"><path d="M336.017 100.053c2.895-7.135 7.634-7.137 10.533-.003l237.627 584.742c2.898 7.134 2.893 18.804-.015 25.934l-78.971 193.709c-2.907 7.13-7.649 7.124-10.538-.014L346.576 538.543c-2.889-7.138-7.625-7.142-10.525-.008l-47.333 116.466c-2.9 7.134-11.572 12.999-19.272 12.999H119.649c-7.7 0-11.632-5.867-8.737-13.003l225.105-554.944z" fill-rule="evenodd" clip-rule="evenodd" fill="#e1f5c4"/><path d="M336.017 100.053c2.895-7.135 7.634-7.137 10.533-.003l237.627 584.742c2.898 7.134 2.893 18.804-.015 25.934l-78.971 193.709c-2.907 7.13-7.649 7.124-10.538-.014L346.576 538.543c-2.889-7.138-7.625-7.142-10.525-.008l-47.333 116.466c-2.9 7.134-11.572 12.999-19.272 12.999H119.649c-7.7 0-11.632-5.867-8.737-13.003l225.105-554.944z" fill="none" stroke="#2b696b" stroke-width="4" stroke-miterlimit="10"/><path d="M731.133 668.406c-7.7.022-16.34-5.81-19.199-12.959L575.635 314.656c-2.859-7.149-2.842-18.841.039-25.982l77.906-193.09c2.881-7.141 7.59-7.138 10.465.005l225.08 559.364c2.875 7.144-1.073 13.006-8.773 13.028l-149.219.425z" fill-rule="evenodd" clip-rule="evenodd" fill="#e1f5c4"/><path d="M731.133 668.406c-7.7.022-16.34-5.81-19.199-12.959L575.635 314.656c-2.859-7.149-2.842-18.841.039-25.982l77.906-193.09c2.881-7.141 7.59-7.138 10.465.005l225.08 559.364c2.875 7.144-1.073 13.006-8.773 13.028l-149.219.425z" fill="none" stroke="#2b696b" stroke-width="4" stroke-miterlimit="10"/></svg>