<?xml version="1.0" encoding="utf-8"?>
<!-- Generator: Adobe Illustrator 16.0.3, SVG Export Plug-In . SVG Version: 6.00 Build 0)  -->
<!DOCTYPE svg PUBLIC "-//W3C//DTD SVG 1.1//EN" "http://www.w3.org/Graphics/SVG/1.1/DTD/svg11.dtd">
<svg version="1.1" id="Capa_1" xmlns="http://www.w3.org/2000/svg" xmlns:xlink="http://www.w3.org/1999/xlink" x="0px" y="0px"
	 width="1000px" height="1000px" viewBox="0 0 1000 1000" style="enable-background:new 0 0 1000 1000;" xml:space="preserve">
<path style="fill-rule:evenodd;clip-rule:evenodd;fill:#ED303C;" d="M878.5,491.512c0,47.251,0.434,85.827-0.146,124.387
	c-0.413,27.536-5.24,54.627-12.207,81.227c-7.029,26.854-17.314,52.564-30.363,77.054c-13.446,25.233-29.57,48.646-48.081,70.559
	c-26.124,30.92-56.749,56.51-91.074,77.457c-35.765,21.829-74.32,37.005-115.495,46.01c-35.91,7.854-72.142,9.626-108.418,7.586
	c-38.476-2.166-75.845-10.932-111.859-25.293c-33.99-13.555-65.484-31.441-94.194-53.878
	c-28.482-22.256-53.373-48.177-74.375-77.822c-25.103-35.437-43.694-73.88-55.983-115.483c-5.261-17.809-9.071-35.905-11.21-54.313
	c-6.732-57.942-2.108-116.113-3.232-174.173c-0.551-28.438-0.523-56.901,0.02-85.339c0.593-31.075,5.44-61.633,13.94-91.544
	c11.633-40.931,29.67-78.813,54.319-113.571c20.8-29.329,45.042-55.237,73.026-77.928c35.571-28.838,75.194-49.901,118.383-64.478
	c26.028-8.784,52.762-13.994,80.22-16.583c24.031-2.266,48.153-2.598,71.909-0.813c34.774,2.611,69.015,9.896,101.669,23.092
	c35.131,14.196,68.304,31.874,98.073,55.444c31.831,25.206,59.384,54.48,81.956,88.334c24.382,36.57,42.155,76.127,52.653,118.78
	c4.494,18.258,7.492,36.831,8.963,55.693C880.483,410.664,877.061,455.45,878.5,491.512z M547.416,68.036
	c-0.734-0.35-1.439-0.922-2.206-1.017c-40.405-5.067-80.553-3.756-120.266,5.564c-76.667,17.991-139.958,57.657-188.976,119.19
	c-46.741,58.677-71.725,125.942-72.939,201.045c-1.113,68.896-0.305,137.826-0.388,206.744c-0.032,26.32,3.079,52.301,9.35,77.805
	c17.215,70.02,53.339,128.69,107.466,176.198c11.665,10.238,23.757,20.097,37.492,27.624c1.294,0.981,2.52,2.074,3.894,2.926
	c75.899,47.079,158.052,61.975,245.366,45.045c80.314-15.574,146.362-56.322,197.539-120.093
	c47.929-59.72,73.07-128.246,73.775-205.005c0.633-68.928,0.048-137.871,0.196-206.807c0.035-16.459-0.989-32.867-3.945-48.957
	c-21.196-115.413-84.247-199.682-189.452-251.837C613.825,81.345,581.542,71.293,547.416,68.036z"/>
<path style="fill-rule:evenodd;clip-rule:evenodd;fill:#2B696B;" d="M547.416,68.036c34.126,3.257,66.409,13.309,96.906,28.427
	C749.527,148.618,812.578,232.887,833.774,348.3c2.956,16.09,3.98,32.498,3.945,48.957c-0.148,68.936,0.437,137.879-0.196,206.807
	c-0.705,76.759-25.847,145.285-73.775,205.005c-51.177,63.771-117.225,104.519-197.539,120.093
	c-87.314,16.93-169.467,2.034-245.366-45.045c-1.375-0.852-2.6-1.944-3.894-2.926c0.224-10.09-0.887-20.146-1.159-30.167
	c-0.857-31.609-1.764-63.199-3.498-94.777c-1.076-19.596-0.17-39.224-1.398-58.889c-1.986-31.85-0.157-63.823-1.552-95.787
	c-1.224-28.007-0.126-56.178,0.672-84.301c1.22-43.045,2.039-86.056,5.211-129.034c1.521-20.622,4.318-41.037,6.841-61.51
	c3.217-26.106,9.601-51.381,21.574-74.929c21.911-43.097,49.576-81.766,85.61-114.533
	C463.903,105.752,502.501,81.683,547.416,68.036z"/>
<path style="fill-rule:evenodd;clip-rule:evenodd;fill:#89B3B5;" d="M547.416,68.036c-44.915,13.646-83.513,37.716-118.166,69.228
	c-36.034,32.768-63.699,71.437-85.61,114.533c-11.973,23.548-18.357,48.822-21.574,74.929c-2.523,20.473-5.32,40.888-6.841,61.51
	c-3.172,42.979-3.991,85.989-5.211,129.034c-0.798,28.123-1.896,56.294-0.672,84.301c1.396,31.964-0.434,63.938,1.552,95.787
	c1.229,19.665,0.322,39.293,1.398,58.889c1.734,31.578,2.641,63.168,3.498,94.777c0.272,10.021,1.383,20.077,1.159,30.167
	c-13.734-7.527-25.827-17.386-37.492-27.624c-54.126-47.508-90.251-106.179-107.466-176.198c-6.271-25.504-9.382-51.484-9.35-77.805
	c0.083-68.918-0.725-137.848,0.388-206.744c1.214-75.103,26.198-142.368,72.939-201.045
	c49.018-61.533,112.308-101.199,188.976-119.19c39.713-9.32,79.861-10.632,120.266-5.564
	C545.977,67.114,546.682,67.687,547.416,68.036z"/>
<g>
	<g>
		<path style="fill-rule:evenodd;clip-rule:evenodd;fill:#E1F5C4;" d="M379.071,205.973c2.895-7.135,7.634-7.137,10.533-0.003
			l171.037,420.879c2.898,7.133,2.893,18.804-0.015,25.934l-54.944,134.774c-2.907,7.13-7.648,7.124-10.538-0.014L389.618,526.805
			c-2.889-7.138-7.625-7.142-10.525-0.008L347.29,605.03c-2.9,7.134-11.572,12.97-19.272,12.97H225.929
			c-7.7,0-11.632-5.838-8.737-12.974L379.071,205.973z"/>
	</g>
	<g>
		<path style="fill-rule:evenodd;clip-rule:evenodd;fill:#E1F5C4;" d="M673.334,618.329c-7.7,0.022-16.34-5.81-19.199-12.959
			l-96.936-242.371c-2.859-7.149-2.842-18.841,0.039-25.982l54.19-134.311c2.881-7.141,7.59-7.138,10.465,0.005l161.88,402.301
			c2.875,7.144-1.073,13.006-8.773,13.028L673.334,618.329z"/>
	</g>
</g>
</svg>
