<?xml version="1.0" encoding="utf-8"?>
<!-- Generator: Adobe Illustrator 16.0.3, SVG Export Plug-In . SVG Version: 6.00 Build 0)  -->
<!DOCTYPE svg PUBLIC "-//W3C//DTD SVG 1.1//EN" "http://www.w3.org/Graphics/SVG/1.1/DTD/svg11.dtd">
<svg version="1.1" id="Capa_1" xmlns="http://www.w3.org/2000/svg" xmlns:xlink="http://www.w3.org/1999/xlink" x="0px" y="0px"
	 width="1000px" height="1000px" viewBox="0 0 1000 1000" style="enable-background:new 0 0 1000 1000;" xml:space="preserve">
<g>
	<g>
		<path style="fill-rule:evenodd;clip-rule:evenodd;fill:#E1F5C4;" d="M336.017,100.053c2.895-7.135,7.634-7.137,10.533-0.003
			l237.627,584.742c2.898,7.134,2.893,18.804-0.015,25.934l-78.971,193.709c-2.907,7.13-7.649,7.124-10.538-0.014L346.576,538.543
			c-2.889-7.138-7.625-7.142-10.525-0.008l-47.333,116.466c-2.9,7.134-11.572,12.999-19.272,12.999H119.649
			c-7.7,0-11.632-5.867-8.737-13.003L336.017,100.053z"/>
		<path style="fill:none;stroke:#2B696B;stroke-width:4;stroke-miterlimit:10;" d="M336.017,100.053
			c2.895-7.135,7.634-7.137,10.533-0.003l237.627,584.742c2.898,7.134,2.893,18.804-0.015,25.934l-78.971,193.709
			c-2.907,7.13-7.649,7.124-10.538-0.014L346.576,538.543c-2.889-7.138-7.625-7.142-10.525-0.008l-47.333,116.466
			c-2.9,7.134-11.572,12.999-19.272,12.999H119.649c-7.7,0-11.632-5.867-8.737-13.003L336.017,100.053z"/>
	</g>
	<g>
		<path style="fill-rule:evenodd;clip-rule:evenodd;fill:#E1F5C4;" d="M731.133,668.406c-7.7,0.022-16.34-5.81-19.199-12.959
			L575.635,314.656c-2.859-7.149-2.842-18.841,0.039-25.982l77.906-193.09c2.881-7.141,7.59-7.138,10.465,0.005l225.08,559.364
			c2.875,7.144-1.073,13.006-8.773,13.028L731.133,668.406z"/>
		<path style="fill:none;stroke:#2B696B;stroke-width:4;stroke-miterlimit:10;" d="M731.133,668.406
			c-7.7,0.022-16.34-5.81-19.199-12.959L575.635,314.656c-2.859-7.149-2.842-18.841,0.039-25.982l77.906-193.09
			c2.881-7.141,7.59-7.138,10.465,0.005l225.08,559.364c2.875,7.144-1.073,13.006-8.773,13.028L731.133,668.406z"/>
	</g>
</g>
</svg>
